<svg id="Layer_1" data-name="Layer 1" xmlns="http://www.w3.org/2000/svg" viewBox="0 0 258 110"><defs><style>.cls-1{fill:#5cb270;}.cls-2{fill:#82c26e;}.cls-3{fill:#f0f0f0;}.cls-4{opacity:0.38;}.cls-5{fill:#a8d26d;}.cls-6{fill:#39b34a;}.cls-7{fill:#fff;}.cls-8{fill:#8ac43f;}</style></defs><path class="cls-1" d="M77.47,59.68c0,1.85,1.65,2.61,3.63,2.61s3.66-.76,3.66-2.61V41.23c0-.85.32-1.21,1.17-1.21h4.35c.85,0,1.13.36,1.13,1.21V60.84c0,3.47-2.74,6.89-10.31,6.89s-10.27-3.42-10.27-6.89V41.23c0-.85.32-1.21,1.17-1.21h4.34c.85,0,1.13.36,1.13,1.21Z"/><path class="cls-1" d="M116.62,66.2c0,.85-.28,1.21-1.13,1.21h-3.95a1,1,0,0,1-1.08-.56L104,56.13a23,23,0,0,1-1.73-3.62V66.2c0,.85-.28,1.21-1.13,1.21H97.21c-.85,0-1.17-.36-1.17-1.21v-25c0-.85.32-1.21,1.17-1.21h3.94a1,1,0,0,1,1,.49L109,51.9c.48.85,1,2.06,1.41,3V41.23c0-.85.32-1.21,1.16-1.21h3.95c.85,0,1.13.36,1.13,1.21Z"/><path class="cls-1" d="M128.09,66.2c0,.85-.28,1.21-1.12,1.21h-4.35c-.85,0-1.17-.36-1.17-1.21v-25c0-.85.32-1.21,1.17-1.21H127c.84,0,1.12.36,1.12,1.21Z"/><path class="cls-1" d="M145.49,47.47c0-1.85-1.29-2.53-3.14-2.53s-3.18.68-3.18,2.53v.41a1.85,1.85,0,0,0,1.29,1.73l6.76,2.29c3,1,5,3.1,5,6.08v2.86c0,3.47-2.46,6.89-10,6.89s-10.11-3.42-10.11-6.89V58.15c0-.85.32-1.21,1.17-1.21h4.19c.84,0,1.13.36,1.13,1.21V60c0,1.85,1.57,2.54,3.54,2.54s3.58-.69,3.58-2.54v-.81c0-1.45-1.93-2.13-3.46-2.7l-5.8-2.17a6,6,0,0,1-3.74-5.36V46.59c0-3.47,2.09-6.89,9.54-6.89S152,43.12,152,46.59v1.49c0,.84-.33,1.21-1.17,1.21h-4.19c-.85,0-1.13-.37-1.13-1.21Z"/><path class="cls-1" d="M162.73,62h7.89c.85,0,1.21.28,1.21,1.13v3.14c0,.85-.36,1.17-1.21,1.17H157.09c-.72,0-1-.4-1-1.21v-25c0-.85.33-1.21,1.17-1.21h4.35c.85,0,1.13.36,1.13,1.21Z"/><path class="cls-1" d="M181.5,59.68c0,1.85,1.65,2.61,3.62,2.61s3.67-.76,3.67-2.61V41.23c0-.85.32-1.21,1.16-1.21h4.35c.85,0,1.13.36,1.13,1.21V60.84c0,3.47-2.74,6.89-10.31,6.89s-10.27-3.42-10.27-6.89V41.23c0-.85.32-1.21,1.17-1.21h4.35c.84,0,1.13.36,1.13,1.21Z"/><path class="cls-1" d="M216,56.29l3.95,9.91c.28.73-.25,1.21-1.13,1.21h-4.35c-.77,0-.93-.65-1.17-1.21l-3.54-8.9h-3v8.9c0,.85-.29,1.21-1.13,1.21h-4.35c-.85,0-1.17-.36-1.17-1.21v-25c0-.85.32-1.21,1.17-1.21h8.7c7.57,0,10.23,3.43,10.23,6.89v3.5A6.23,6.23,0,0,1,216,56.29Zm-9.26-10.83v6.4h3.22c2,0,3.66-.76,3.66-2.61V48.08c0-1.86-1.69-2.62-3.66-2.62Z"/><path class="cls-1" d="M250,66.2c0,.85-.28,1.21-1.13,1.21h-4.15c-.84,0-1.16-.36-1.16-1.21V53.43c0,.12-.81,2.94-1.29,4.23l-1.77,4.39a1.59,1.59,0,0,1-1.58,1.21h-3.5c-.8,0-1.21-.48-1.53-1.21l-2.22-5.11a30.65,30.65,0,0,1-1-3.39V66.2c0,.85-.28,1.21-1.13,1.21h-3.95c-.84,0-1.16-.36-1.16-1.21v-25c0-.85.32-1.21,1.16-1.21h3.95a1,1,0,0,1,1.05.65L236,53c.57,1.37,1.09,3,1.17,3.18a26.44,26.44,0,0,1,1.17-3.1l5.28-12.48c.16-.41.48-.57,1.08-.57h4.15c.85,0,1.13.36,1.13,1.21Z"/><path class="cls-2" d="M51.38,28.13a28.46,28.46,0,0,0-8.52-3.52c-.51,4.7-1,9-1,9.16.85,0,1.62.08,2.14.14Z"/><polygon class="cls-3" points="55.87 24.61 47.26 37.29 43.6 34.22 55.87 24.61"/><path class="cls-4" d="M47.53,40.59l.08-.05Z"/><path class="cls-4" d="M46.73,41.07l.05,0Z"/><path class="cls-5" d="M12.5,61.83A28.21,28.21,0,0,1,37.53,34l3.06-9.88a30.49,30.49,0,0,0-3.85-.25A28.27,28.27,0,0,0,8.26,51.9a27.58,27.58,0,0,0,4.83,15.62A27.39,27.39,0,0,1,12.5,61.83Z"/><path class="cls-1" d="M53,28.86l-5.25,7.73A4.28,4.28,0,0,1,48,38a4.05,4.05,0,0,1-1.77,3.36,21.84,21.84,0,0,0,.52,36.69l.09,0A27.86,27.86,0,0,0,53,28.86Z"/><path class="cls-6" d="M43.72,34.12c1-.83,2-1.65,3-2.47l1.5-1.22,1.49-1.22.75-.6.76-.6,1.5-1.21,3-2.38,1.29-1-.93,1.35-2.13,3.12c-.71,1-1.42,2.07-2.15,3.1S50.34,33,49.61,34.05s-1.47,2-2.22,3.05c.66-1.07,1.34-2.13,2-3.19s1.37-2.11,2.06-3.16,1.39-2.1,2.08-3.15l2.11-3.13.36.34-3,2.37-1.53,1.17-.77.59-.76.58-1.54,1.17-1.54,1.15C45.8,32.61,44.77,33.37,43.72,34.12Z"/><path class="cls-7" d="M46.21,41.39A4.08,4.08,0,0,0,44.62,34a17.58,17.58,0,0,0-2.77-.24c.08-.32,2.29-21.18,2.29-21.18L37.51,34a28.22,28.22,0,0,0-25,27.85,27.6,27.6,0,0,0,.7,6.2,28.81,28.81,0,0,0,33.55,10,21.84,21.84,0,0,1-.52-36.69Z"/><path class="cls-3" d="M36.48,59.57a22.48,22.48,0,0,1,7.24-16.24c-.41.06-15.94,6.16-15.94,1.53a8.34,8.34,0,0,1,1.11-4.18,24.67,24.67,0,0,0,17.28,37.6l.56-.2A21.84,21.84,0,0,1,36.48,59.57Z"/><path class="cls-8" d="M41.8,34.2l.43-5.27c.15-1.76.3-3.52.46-5.27s.31-3.51.47-5.27.34-3.51.5-5.26l.49.1L42.5,18.57l-.84,2.67q-.4,1.34-.84,2.67L40,26.57l-.86,2.67C38.53,31,38,32.78,37.35,34.55q.75-2.7,1.52-5.39l.78-2.69.79-2.68c.26-.89.53-1.79.8-2.68l.8-2.68,1.63-5.35.49.1c-.18,1.75-.35,3.51-.53,5.26s-.37,3.5-.56,5.26-.39,3.5-.6,5.25c-.1.88-.21,1.75-.32,2.63S41.93,33.33,41.8,34.2Z"/></svg>